<svg width="68" height="68" viewBox="0 0 68 68" fill="none" xmlns="http://www.w3.org/2000/svg">
<g clip-path="url(#clip0_126_1361)">
<rect width="68" height="68" rx="6" fill="black"/>
<ellipse cx="35.1641" cy="20.4665" rx="41.9098" ry="41.9098" transform="matrix(0.80438 0.594373 -0.593856 0.80438 19.033 -16.8969)" fill="#EAEEF2"/>
<ellipse cx="38.0833" cy="34.1338" rx="38.0833" ry="34.1338" transform="matrix(0.618231 0.811691 -0.769222 0.598466 37.881 -30.8705)" fill="black"/>
<path d="M23.2868 25.5061L31.6024 32.1107C32.1479 32.5439 32.3723 33.3268 32.1297 33.9503C31.6045 35.2999 32.4553 36.9898 33.824 37.3153L33.9078 37.3352C35.2765 37.6607 36.3863 36.4372 36.1177 34.8988C35.9936 34.1881 36.3449 33.5421 36.9432 33.3809L46.0641 30.9232C46.9395 30.6873 47.7142 31.8721 47.2132 32.6807L33.1434 55.3916C32.7142 56.0844 31.7053 55.8444 31.4144 54.9804L21.8793 26.6556C21.5399 25.6471 22.4887 24.8722 23.2868 25.5061Z" fill="#EAEEF2"/>
<path d="M38.1009 12.4116C40.4255 13.7362 42.0826 15.6133 43.0721 18.0428C43.9722 20.4214 43.9482 22.7673 43.0002 25.0805C42.0522 27.3937 40.5083 28.8735 38.3685 29.5199C36.1393 30.1154 33.8624 29.7508 31.5378 28.4262C29.2132 27.1015 27.6008 25.2499 26.7008 22.8713C25.7113 20.4418 25.6905 18.0704 26.6385 15.7572C27.5865 13.444 29.1751 11.9897 31.4043 11.3942C33.5441 10.7478 35.7763 11.0869 38.1009 12.4116Z" fill="#EAEEF2"/>
</g>
<defs>
<clipPath id="clip0_126_1361">
<rect width="68" height="68" rx="6" fill="white"/>
</clipPath>
</defs>
</svg>
