<svg width="144" height="106" viewBox="0 0 144 106" fill="none" xmlns="http://www.w3.org/2000/svg">
<g clip-path="url(#clip0_126_1677)">
<rect width="68.2023" height="86.0339" rx="6" transform="matrix(0.940061 0.341006 -0.343037 0.939322 79.8856 1.73242)" fill="white"/>
<path d="M128.29 30.4893L131.146 11.2446L133.332 12.2669L130.768 27.8358L130.365 27.6471L140.561 15.6482L142.075 16.356L139.309 31.8305L138.973 31.6732L149.371 19.7687L151.456 20.7438L138.445 35.2388L136.831 34.4839L139.562 18.9937L140.033 19.2139L129.904 31.2442L128.29 30.4893Z" fill="#D9D9D9"/>
<path d="M114.488 24.4024C113.187 23.7943 112.162 22.8637 111.411 21.6106C110.683 20.368 110.316 18.9391 110.31 17.3237C110.314 15.6859 110.711 14.0269 111.502 12.3466C112.292 10.6664 113.312 9.31211 114.561 8.28387C115.821 7.23324 117.163 6.5899 118.586 6.35385C120.033 6.12829 121.406 6.31956 122.706 6.92768C124.006 7.5358 125.032 8.46639 125.782 9.71946C126.533 10.9725 126.906 12.418 126.902 14.0557C126.908 15.6711 126.516 17.3189 125.725 18.9992C124.935 20.6795 123.91 22.0449 122.65 23.0955C121.401 24.1238 120.053 24.7507 118.607 24.9762C117.161 25.2018 115.788 25.0105 114.488 24.4024ZM115.42 22.4197C116.339 22.8496 117.311 22.9627 118.337 22.7591C119.363 22.5555 120.342 22.0433 121.275 21.2224C122.208 20.4015 122.985 19.3302 123.607 18.0084C124.229 16.6866 124.558 15.4055 124.594 14.1653C124.63 12.925 124.399 11.8466 123.9 10.9301C123.402 10.0135 122.693 9.34026 121.774 8.91039C120.877 8.491 119.916 8.38311 118.89 8.58671C117.865 8.79032 116.885 9.30255 115.952 10.1234C115.019 10.9443 114.242 12.0156 113.62 13.3374C112.999 14.6592 112.67 15.9403 112.633 17.1805C112.597 18.4208 112.828 19.4992 113.327 20.4158C113.826 21.3323 114.523 22.0003 115.42 22.4197Z" fill="#D9D9D9"/>
<path d="M99.2825 16.9285L109.35 -4.478L102.894 -7.49762L103.89 -9.61475L119.055 -2.5218L118.059 -0.404675L111.637 -3.40856L101.569 17.998L99.2825 16.9285Z" fill="#D9D9D9"/>
<path d="M139.673 79.3715L147.607 62.5017L149.726 63.4925L141.792 80.3623L139.673 79.3715ZM149.948 60.3165C149.544 60.1278 149.26 59.8308 149.095 59.4257C148.963 59.0086 148.997 58.5873 149.197 58.1616C149.324 57.8928 149.496 57.6725 149.713 57.5009C149.963 57.3174 150.227 57.2221 150.504 57.2149C150.791 57.1853 151.069 57.2334 151.338 57.3592C151.742 57.548 152.01 57.8509 152.142 58.2679C152.284 58.6626 152.256 59.0728 152.055 59.4984C151.918 59.7897 151.73 60.0158 151.49 60.177C151.273 60.3486 151.02 60.4492 150.733 60.4788C150.478 60.4964 150.217 60.4423 149.948 60.3165Z" fill="#D9D9D9"/>
<path d="M129.557 74.646L137.491 57.7762L139.038 58.4997L138.499 60.9535L138.667 61.0321C139.354 60.5607 140.199 60.2456 141.204 60.0868C142.208 59.928 143.137 60.0478 143.988 60.4462C144.168 60.5301 144.342 60.6251 144.511 60.7314C144.69 60.8153 144.836 60.9111 144.95 61.0188L143.954 63.1359C143.717 62.9429 143.407 62.7573 143.026 62.579C142.175 62.1806 141.323 62.0422 140.473 62.1638C139.656 62.2735 138.883 62.6365 138.156 63.2529C137.429 63.8693 136.812 64.7151 136.306 65.7905L131.675 75.6368L129.557 74.646Z" fill="#D9D9D9"/>
<path d="M112.115 66.488L120.049 49.6182L121.595 50.3416L121.057 52.7955L121.225 52.8741C121.955 52.3683 122.828 52.0525 123.845 51.9266C124.861 51.8007 125.896 51.9841 126.95 52.4769C128.093 53.0116 128.982 53.7964 129.616 54.8311C130.262 55.8435 130.584 57.0191 130.583 58.3581C130.593 59.6746 130.261 61.0497 129.586 62.4836L124.892 72.4643L122.774 71.4735L127.468 61.4928C127.974 60.4174 128.232 59.4038 128.242 58.4519C128.274 57.5105 128.072 56.6914 127.633 55.9945C127.206 55.2753 126.578 54.7217 125.748 54.3338C124.874 53.9249 124 53.776 123.128 53.8871C122.288 53.9863 121.504 54.3441 120.777 54.9605C120.049 55.5768 119.433 56.4227 118.927 57.4981L114.233 67.4788L112.115 66.488Z" fill="#D9D9D9"/>
<path d="M100.481 61.4134C99.338 60.8787 98.4326 60.0999 97.765 59.077C97.1304 58.0422 96.8082 56.8666 96.7983 55.5501C96.799 54.2112 97.1365 52.8248 97.8109 51.391L102.505 41.4102L104.623 42.401L99.9293 52.3818C99.4236 53.4571 99.1544 54.4655 99.1219 55.4069C99.1118 56.3588 99.3205 57.1944 99.748 57.9136C100.186 58.6104 100.82 59.1528 101.649 59.5408C102.546 59.9601 103.414 60.1202 104.254 60.021C105.104 59.8994 105.893 59.5304 106.62 58.9141C107.348 58.2977 107.965 57.4518 108.47 56.3765L113.164 46.3957L115.283 47.3865L107.349 64.2564L105.802 63.5329L106.341 61.0791L106.173 61.0004C105.465 61.5167 104.592 61.8325 103.553 61.948C102.536 62.0739 101.513 61.8957 100.481 61.4134Z" fill="#D9D9D9"/>
<path d="M83.9865 53.7003C82.5518 53.0293 81.4551 52.1337 80.6965 51.0137C79.9603 49.9041 79.5537 48.6753 79.4766 47.3273C79.4101 45.9569 79.6592 44.5839 80.2242 43.2082L82.4771 44.262C82.0702 45.3016 81.8782 46.2914 81.9011 47.2313C81.9463 48.1818 82.2275 49.0376 82.7447 49.7988C83.2724 50.5375 84.0182 51.1323 84.9822 51.5832C85.9685 52.0445 86.877 52.2644 87.7075 52.2429C88.5486 52.199 89.2796 51.9532 89.9003 51.5056C90.521 51.058 91.0158 50.4421 91.3846 49.658C91.8166 48.7395 91.9394 47.8676 91.7532 47.0426C91.5998 46.2056 91.2877 45.4446 90.8167 44.7597C90.3563 44.0524 89.6756 43.1737 88.7746 42.1237C87.7378 40.9555 86.9318 39.9363 86.3566 39.0659C85.7814 38.1956 85.4085 37.2149 85.2379 36.1239C85.1003 35.0209 85.3318 33.8309 85.9324 32.5539C86.4697 31.4113 87.2122 30.5013 88.1598 29.824C89.1298 29.157 90.2179 28.7914 91.4242 28.7269C92.6635 28.6506 93.922 28.9112 95.1997 29.5089C96.5672 30.1484 97.5854 31.0073 98.2543 32.0854C98.9562 33.1516 99.312 34.343 99.3219 35.6595C99.3647 36.9641 99.1141 38.2819 98.5703 39.6127L96.3173 38.559C96.7256 37.5747 96.9189 36.6402 96.8974 35.7555C96.8865 34.8484 96.6508 34.0413 96.1903 33.3339C95.7404 32.6042 95.0783 32.0349 94.204 31.626C93.3298 31.2171 92.4998 31.0339 91.714 31.0763C90.9283 31.1188 90.2363 31.3691 89.638 31.8272C89.0502 32.2629 88.5772 32.8616 88.2189 33.6234C87.7975 34.5195 87.6634 35.3861 87.8167 36.2231C87.9806 37.0376 88.2868 37.7822 88.7353 38.4566C89.2169 39.1191 89.9134 39.9642 90.8248 40.9918C91.8616 42.16 92.6676 43.1792 93.2428 44.0496C93.851 44.908 94.2298 45.9051 94.3794 47.041C94.5394 48.1544 94.3033 49.3832 93.6711 50.7274C93.1127 51.9148 92.3432 52.8532 91.3627 53.5425C90.3927 54.2094 89.2656 54.5705 87.9816 54.6259C86.7304 54.6694 85.3987 54.3609 83.9865 53.7003Z" fill="#D9D9D9"/>
<path d="M148.007 127.198C147.2 126.821 146.566 126.279 146.106 125.571C145.656 124.841 145.43 123.984 145.428 122.999C145.427 122.015 145.684 120.973 146.2 119.876L150.847 109.996L148.157 108.738L149.089 106.755L150.266 107.305C150.871 107.588 151.41 107.635 151.882 107.446C152.354 107.257 152.748 106.826 153.064 106.154L154.186 103.768L155.968 104.602L153.898 109.004L157.428 110.655L156.496 112.638L152.965 110.987L148.319 120.866C147.781 122.009 147.61 122.954 147.806 123.701C148.001 124.449 148.491 125.006 149.276 125.373C149.635 125.541 149.997 125.642 150.364 125.677L149.463 127.592C149.252 127.576 149.024 127.537 148.779 127.477C148.533 127.417 148.276 127.324 148.007 127.198Z" fill="#D9D9D9"/>
<path d="M132.456 119.925C131.134 119.306 130.108 118.375 129.38 117.133C128.652 115.89 128.284 114.461 128.278 112.846C128.272 111.231 128.67 109.571 129.47 107.869C130.261 106.189 131.281 104.834 132.53 103.806C133.79 102.755 135.132 102.112 136.555 101.876C138.001 101.651 139.375 101.842 140.675 102.45C141.975 103.058 142.972 103.962 143.666 105.161C144.36 106.36 144.704 107.723 144.696 109.251C144.689 110.778 144.322 112.314 143.595 113.86C143.458 114.151 143.315 114.426 143.166 114.684C143.028 114.92 142.884 115.14 142.734 115.343L130.595 109.665L131.495 107.75L142.289 112.798L140.757 114.05C140.886 113.891 141.004 113.728 141.111 113.559C141.218 113.39 141.313 113.217 141.398 113.037C141.977 111.805 142.292 110.613 142.341 109.461C142.424 108.297 142.233 107.278 141.768 106.405C141.314 105.509 140.639 104.852 139.742 104.433C138.846 104.013 137.879 103.917 136.843 104.143C135.817 104.346 134.838 104.858 133.905 105.679C132.972 106.5 132.2 107.56 131.589 108.86C130.957 110.204 130.611 111.491 130.553 112.721C130.504 113.928 130.73 114.99 131.228 115.907C131.727 116.823 132.47 117.512 133.456 117.973C134.375 118.403 135.276 118.551 136.16 118.418C137.076 118.272 137.952 117.862 138.789 117.188L140.908 118.179C140.172 118.928 139.339 119.508 138.407 119.92C137.475 120.331 136.483 120.551 135.431 120.578C134.412 120.593 133.42 120.375 132.456 119.925Z" fill="#D9D9D9"/>
<path d="M117.268 112.821C116.192 112.318 115.35 111.637 114.742 110.778C114.144 109.898 113.794 108.955 113.692 107.951C113.601 106.924 113.732 105.947 114.087 105.019L116.171 105.994C115.808 107 115.792 107.935 116.123 108.801C116.455 109.666 117.147 110.346 118.201 110.838C119.187 111.3 120.065 111.41 120.835 111.168C121.627 110.938 122.208 110.43 122.576 109.646C122.861 109.041 122.925 108.47 122.767 107.932C122.643 107.382 122.404 106.873 122.049 106.407C121.727 105.928 121.214 105.333 120.509 104.621C119.69 103.746 119.046 102.993 118.576 102.364C118.117 101.712 117.811 100.967 117.658 100.13C117.527 99.3036 117.693 98.3974 118.157 97.4117C118.536 96.6052 119.102 95.9542 119.855 95.4589C120.607 94.9636 121.459 94.6926 122.411 94.6458C123.363 94.599 124.321 94.8011 125.285 95.2519C126.316 95.7342 127.107 96.3776 127.659 97.1822C128.233 97.9972 128.553 98.8852 128.621 99.8461C128.689 100.807 128.54 101.763 128.176 102.713L126.091 101.737C126.421 100.744 126.455 99.858 126.192 99.0791C125.93 98.3003 125.316 97.6855 124.352 97.2346C123.456 96.8152 122.634 96.7314 121.886 96.9831C121.149 97.2125 120.612 97.6856 120.275 98.4025C120.001 98.985 119.926 99.5512 120.051 100.101C120.185 100.629 120.425 101.137 120.769 101.626C121.124 102.093 121.642 102.677 122.324 103.379C123.133 104.276 123.767 105.051 124.226 105.703C124.685 106.355 124.986 107.111 125.129 107.97C125.282 108.807 125.127 109.718 124.663 110.704C124.263 111.555 123.686 112.229 122.934 112.724C122.181 113.219 121.318 113.485 120.344 113.521C119.369 113.558 118.344 113.324 117.268 112.821Z" fill="#D9D9D9"/>
<path d="M95.3244 102.189L103.258 85.3189L104.805 86.0424L104.266 88.4962L104.435 88.5749C105.165 88.0691 106.038 87.7532 107.054 87.6273C108.071 87.5014 109.106 87.6849 110.159 88.1776C111.303 88.7124 112.192 89.4971 112.826 90.5319C113.471 91.5442 113.794 92.7199 113.793 94.0588C113.803 95.3753 113.471 96.7505 112.796 98.1843L108.102 108.165L105.984 107.174L110.678 97.1935C111.184 96.1181 111.441 95.1045 111.452 94.1526C111.484 93.2112 111.281 92.3921 110.843 91.6953C110.416 90.9761 109.787 90.4225 108.958 90.0345C108.084 89.6256 107.21 89.4767 106.337 89.5879C105.498 89.6871 104.714 90.0448 103.987 90.6612C103.259 91.2776 102.643 92.1234 102.137 93.1988L97.4429 103.18L95.3244 102.189Z" fill="#D9D9D9"/>
<path d="M83.6882 97.1202C82.545 96.5854 81.6395 95.8067 80.972 94.7838C80.3373 93.749 80.0151 92.5734 80.0053 91.2569C80.0059 89.918 80.3435 88.5316 81.0178 87.0978L85.7118 77.117L87.8302 78.1078L83.1362 88.0886C82.6305 89.1639 82.3613 90.1723 82.3288 91.1137C82.3187 92.0656 82.5274 92.9011 82.9549 93.6204C83.3929 94.3172 84.0267 94.8596 84.8561 95.2475C85.7528 95.6669 86.621 95.827 87.4608 95.7278C88.311 95.6062 89.0999 95.2372 89.8274 94.6209C90.5548 94.0045 91.1714 93.1586 91.6772 92.0833L96.3712 82.1025L98.4896 83.0933L90.5556 99.9631L89.0088 99.2397L89.5476 96.7858L89.3794 96.7072C88.6717 97.2235 87.7984 97.5393 86.7596 97.6547C85.7432 97.7807 84.7194 97.6025 83.6882 97.1202Z" fill="#D9D9D9"/>
<path d="M67.1965 89.4008C65.7618 88.7298 64.6652 87.8342 63.9066 86.7142C63.1704 85.6046 62.7638 84.3758 62.6867 83.0278C62.6201 81.6574 62.8693 80.2844 63.4343 78.9088L65.6872 79.9625C65.2803 81.0021 65.0883 81.9919 65.1111 82.9318C65.1564 83.8823 65.4376 84.7381 65.9548 85.4993C66.4825 86.238 67.2283 86.8328 68.1922 87.2837C69.1786 87.745 70.0871 87.9649 70.9176 87.9434C71.7587 87.8995 72.4896 87.6537 73.1104 87.2061C73.7311 86.7585 74.2259 86.1426 74.5947 85.3585C75.0267 84.44 75.1495 83.5681 74.9632 82.7431C74.8099 81.9061 74.4978 81.1451 74.0268 80.4602C73.5663 79.7529 72.8857 78.8742 71.9847 77.8242C70.9479 76.656 70.1419 75.6368 69.5667 74.7664C68.9915 73.8961 68.6186 72.9154 68.448 71.8244C68.3104 70.7214 68.5419 69.5314 69.1424 68.2544C69.6798 67.1118 70.4223 66.2019 71.3699 65.5245C72.3399 64.8575 73.428 64.4919 74.6343 64.4274C75.8735 64.3511 77.132 64.6117 78.4098 65.2094C79.7773 65.8489 80.7955 66.7078 81.4644 67.7859C82.1663 68.8521 82.5221 70.0435 82.532 71.36C82.5748 72.6646 82.3242 73.9824 81.7804 75.3132L79.5274 74.2595C79.9357 73.2752 80.129 72.3407 80.1075 71.456C80.0965 70.5489 79.8608 69.7418 79.4004 69.0344C78.9505 68.3047 78.2884 67.7354 77.4141 67.3265C76.5399 66.9176 75.7099 66.7344 74.9241 66.7768C74.1384 66.8193 73.4464 67.0696 72.848 67.5277C72.2603 67.9634 71.7872 68.5621 71.429 69.3239C71.0075 70.22 70.8735 71.0866 71.0268 71.9236C71.1907 72.7381 71.4969 73.4827 71.9454 74.1571C72.4269 74.8196 73.1234 75.6647 74.0349 76.6923C75.0717 77.8605 75.8777 78.8797 76.4529 79.7501C77.0611 80.6085 77.4399 81.6056 77.5894 82.7415C77.7495 83.8549 77.5134 85.0837 76.8812 86.4279C76.3228 87.6153 75.5533 88.5537 74.5728 89.243C73.6027 89.9099 72.4757 90.271 71.1916 90.3264C69.9405 90.3699 68.6088 90.0614 67.1965 89.4008Z" fill="#D9D9D9"/>
<path d="M42.1733 120.89L61.1723 101.078L63.3243 102.084L60.1631 129.304L57.7757 128.187L58.6995 120.379L58.8118 119.529L60.768 103.595L61.5414 103.956L50.4726 115.629L49.8895 116.258L44.4935 121.975L42.1733 120.89ZM48.4321 116.479L50.2685 114.755L59.7846 119.206L59.5959 121.7L48.4321 116.479Z" fill="#D9D9D9"/>
<path opacity="0.6" d="M324.744 201.101C289.557 275.92 200.342 308.187 125.478 273.172C50.6131 238.158 18.4487 149.12 53.6362 74.3013C88.8238 -0.517283 178.039 -32.7846 252.903 2.2303C327.768 37.2452 359.932 126.283 324.744 201.101Z" fill="white"/>
<path d="M95.876 85.2801C97.2399 82.3801 95.9932 78.929 93.0914 77.5719C90.1897 76.2147 86.7318 77.4654 85.3679 80.3653C84.0041 83.2653 85.2508 86.7164 88.1525 88.0735C91.0542 89.4307 94.5121 88.18 95.876 85.2801Z" fill="#1A1A1A"/>
<path d="M118.508 75.3713C119.872 72.4713 118.625 69.0202 115.724 67.6631C112.822 66.3059 109.364 67.5566 108 70.4565C106.636 73.3565 107.883 76.8075 110.785 78.1647C113.686 79.5219 117.144 78.2712 118.508 75.3713Z" fill="#1A1A1A"/>
<path d="M142.697 67.4597C144.061 64.5597 142.814 61.1087 139.912 59.7515C137.011 58.3943 133.553 59.645 132.189 62.545C130.825 65.4449 132.072 68.896 134.973 70.2531C137.875 71.6103 141.333 70.3596 142.697 67.4597Z" fill="#1A1A1A"/>
<path d="M66.9782 83.1259C66.7833 83.5404 66.4893 83.8675 66.0962 84.1073C65.7002 84.3388 65.2249 84.448 64.6706 84.4347C64.1162 84.4214 63.5167 84.264 62.8722 83.9626C62.2277 83.6611 61.7231 83.3021 61.3584 82.8855C60.9937 82.469 60.7768 82.0361 60.7077 81.587C60.6356 81.1297 60.697 80.6938 60.892 80.2793C61.0869 79.8648 61.3824 79.5418 61.7784 79.3103C62.1715 79.0705 62.6453 78.9572 63.1997 78.9705C63.754 78.9838 64.3535 79.1412 64.998 79.4426C65.6425 79.7441 66.1471 80.1031 66.5118 80.5197C66.8765 80.9362 67.0949 81.3732 67.167 81.8305C67.2361 82.2796 67.1732 82.7114 66.9782 83.1259ZM66.0451 82.6895C66.1531 82.4598 66.1804 82.2129 66.1268 81.9488C66.0677 81.6819 65.9089 81.4163 65.6504 81.1519C65.3862 80.8849 65.016 80.64 64.5396 80.4172C64.0633 80.1944 63.6405 80.0684 63.2714 80.0392C62.8966 80.0075 62.5903 80.0555 62.3523 80.1834C62.1088 80.3086 61.9331 80.4861 61.8251 80.7157C61.7145 80.951 61.6887 81.202 61.7478 81.4688C61.804 81.7274 61.9641 81.9902 62.2282 82.2572C62.4868 82.5216 62.8542 82.7652 63.3306 82.988C63.8069 83.2108 64.2325 83.3381 64.6073 83.3699C64.9764 83.3991 65.2814 83.3538 65.5223 83.2342C65.7602 83.1063 65.9345 82.9247 66.0451 82.6895Z" fill="black"/>
<path d="M81.6434 59.8018C81.3794 60.1762 81.033 60.4475 80.6043 60.6156C80.1741 60.775 79.6873 60.8001 79.1438 60.6908C78.6003 60.5816 78.0375 60.3226 77.4554 59.9139C76.8733 59.5052 76.439 59.0641 76.1523 58.5905C75.8657 58.1169 75.7274 57.6528 75.7375 57.1984C75.746 56.7354 75.8823 56.3167 76.1463 55.9422C76.4103 55.5677 76.7574 55.3007 77.1876 55.1413C77.6163 54.9733 78.1024 54.9438 78.6459 55.0531C79.1893 55.1623 79.7521 55.4213 80.3342 55.83C80.9163 56.2387 81.3507 56.6799 81.6373 57.1535C81.924 57.6271 82.063 58.0954 82.0544 58.5584C82.0444 59.0128 81.9073 59.4273 81.6434 59.8018ZM80.8006 59.21C80.9468 59.0025 81.0166 58.764 81.0098 58.4945C80.998 58.2214 80.8879 57.9322 80.6793 57.627C80.4657 57.3181 80.1438 57.0126 79.7135 56.7106C79.2833 56.4085 78.889 56.2111 78.5306 56.1183C78.1672 56.022 77.8572 56.0162 77.6008 56.1009C77.3392 56.1821 77.1353 56.3264 76.9891 56.5339C76.8393 56.7465 76.7703 56.9893 76.7821 57.2623C76.7924 57.5268 76.9043 57.8135 77.118 58.1223C77.3265 58.4276 77.6459 58.7313 78.0761 59.0334C78.5064 59.3355 78.9032 59.5347 79.2667 59.631C79.625 59.7237 79.9332 59.732 80.1912 59.6559C80.4476 59.5712 80.6508 59.4226 80.8006 59.21Z" fill="black"/>
<path d="M78.784 63.5926L74.3043 60.4473L74.5765 60.2866L74.5749 61.738L73.6178 61.6788L73.6189 59.6484L74.0898 58.9804L79.4047 62.712L78.784 63.5926Z" fill="black"/>
<path d="M97.2534 40.7245C96.9284 41.0476 96.5402 41.2548 96.0889 41.346C95.6377 41.4285 95.154 41.3688 94.6379 41.1669C94.1218 40.965 93.6128 40.6123 93.1108 40.1088C92.6087 39.6052 92.2578 39.0953 92.058 38.5791C91.8581 38.0628 91.8027 37.5818 91.8916 37.1359C91.9806 36.6812 92.1875 36.2923 92.5125 35.9692C92.8376 35.6461 93.2257 35.4433 93.677 35.3608C94.1282 35.2696 94.6119 35.325 95.128 35.5268C95.6441 35.7287 96.1531 36.0814 96.6552 36.5849C97.1572 37.0885 97.5081 37.5984 97.708 38.1147C97.9078 38.6309 97.9633 39.1163 97.8743 39.571C97.7854 40.0169 97.5784 40.4014 97.2534 40.7245ZM96.5265 39.9955C96.7066 39.8164 96.8168 39.5936 96.857 39.3269C96.8928 39.0558 96.8346 38.7519 96.6824 38.4149C96.5258 38.0737 96.262 37.7169 95.8909 37.3447C95.5199 36.9725 95.166 36.7097 94.8293 36.5562C94.4882 36.3983 94.1841 36.3388 93.9169 36.3778C93.6453 36.4124 93.4195 36.5192 93.2394 36.6983C93.0549 36.8817 92.9448 37.1089 92.9089 37.38C92.8731 37.6423 92.9335 37.9441 93.0901 38.2854C93.2423 38.6223 93.5039 38.9768 93.875 39.349C94.246 39.7212 94.6021 39.9862 94.9432 40.1441C95.2799 40.2976 95.5818 40.3593 95.849 40.329C96.1162 40.29 96.3421 40.1789 96.5265 39.9955Z" fill="black"/>
<path d="M91.7932 46.0356L91.2104 45.4511L91.1874 42.2305C91.1928 41.8939 91.187 41.6293 91.1701 41.4369C91.1532 41.2357 91.1143 41.0564 91.0535 40.8989C90.9927 40.7414 90.899 40.5991 90.7724 40.4722C90.6414 40.3408 90.4928 40.2575 90.3265 40.2223C90.1646 40.1827 89.996 40.1934 89.8207 40.2544C89.6453 40.3154 89.4808 40.4223 89.3271 40.5751C89.0899 40.8109 88.9687 41.0753 88.9634 41.3682C88.9582 41.6612 89.0646 41.9215 89.2829 42.1492L88.5384 42.8893C88.2678 42.6091 88.0871 42.2918 87.9962 41.9375C87.9097 41.5789 87.9217 41.2181 88.0323 40.8553C88.1385 40.4882 88.3366 40.1605 88.6264 39.8723C88.9295 39.571 89.2563 39.3638 89.607 39.2506C89.9576 39.1374 90.2992 39.1203 90.6318 39.1995C90.9687 39.2743 91.2616 39.4365 91.5104 39.6861C91.7069 39.8831 91.8551 40.1064 91.955 40.3557C92.055 40.6051 92.1198 40.8676 92.1496 41.1431C92.1751 41.4142 92.1894 41.7444 92.1926 42.1336L92.1916 44.6325L91.8965 44.4813L94.0903 42.3002L94.8171 43.0292L91.7932 46.0356Z" fill="black"/>
<path d="M116.736 25.7289C116.36 25.9908 115.942 26.1276 115.482 26.1392C115.023 26.1421 114.557 25.9995 114.084 25.7111C113.611 25.4228 113.171 24.9871 112.765 24.404C112.358 23.8208 112.101 23.2577 111.994 22.7145C111.887 22.1713 111.916 21.6877 112.081 21.2639C112.248 20.8315 112.519 20.4843 112.896 20.2223C113.272 19.9604 113.689 19.8279 114.148 19.825C114.608 19.8134 115.075 19.9517 115.548 20.2401C116.021 20.5284 116.46 20.9641 116.867 21.5473C117.274 22.1304 117.531 22.6935 117.638 23.2367C117.745 23.7799 117.715 24.2678 117.548 24.7002C117.383 25.124 117.112 25.4669 116.736 25.7289ZM116.147 24.8846C116.356 24.7395 116.503 24.5391 116.589 24.2833C116.671 24.0225 116.667 23.713 116.576 23.3547C116.481 22.9914 116.283 22.5942 115.983 22.1632C115.682 21.7322 115.379 21.4119 115.074 21.2023C114.766 20.9876 114.477 20.8763 114.207 20.8684C113.934 20.8554 113.693 20.9214 113.484 21.0666C113.271 21.2153 113.123 21.42 113.041 21.6808C112.96 21.933 112.967 22.2407 113.061 22.6041C113.153 22.9624 113.349 23.357 113.649 23.788C113.95 24.219 114.254 24.5418 114.563 24.7565C114.867 24.9661 115.154 25.0792 115.422 25.0957C115.692 25.1037 115.934 25.0333 116.147 24.8846Z" fill="black"/>
<path d="M112.192 28.8601C111.826 29.115 111.456 29.267 111.082 29.3162C110.709 29.3653 110.362 29.3282 110.042 29.2047C109.718 29.0761 109.443 28.883 109.218 28.6254L110.103 28.0094C110.2 28.1154 110.329 28.1984 110.492 28.2584C110.656 28.3098 110.836 28.3239 111.031 28.3009C111.228 28.2692 111.423 28.1861 111.616 28.0516C111.815 27.9135 111.962 27.762 112.058 27.5969C112.151 27.4268 112.193 27.2544 112.185 27.0796C112.176 26.9048 112.117 26.7388 112.007 26.5816C111.898 26.4245 111.762 26.3116 111.601 26.243C111.44 26.1744 111.258 26.1577 111.056 26.1929C110.86 26.2246 110.659 26.3112 110.456 26.4528L110.075 26.7183L109.56 25.9806L109.903 25.7416C110.086 25.6142 110.225 25.4722 110.32 25.3158C110.411 25.1543 110.454 24.993 110.447 24.8319C110.437 24.6657 110.381 24.5091 110.278 24.3621C110.175 24.215 110.05 24.1105 109.901 24.0485C109.753 23.9779 109.59 23.9557 109.412 23.9818C109.236 23.9993 109.061 24.0683 108.888 24.1886C108.72 24.3054 108.593 24.4428 108.507 24.6008C108.421 24.7587 108.379 24.92 108.38 25.0847C108.378 25.2442 108.412 25.3902 108.482 25.5225L107.597 26.1384C107.434 25.8606 107.347 25.552 107.337 25.2126C107.332 24.8696 107.412 24.5351 107.577 24.209C107.742 23.883 107.988 23.6067 108.313 23.3801C108.654 23.1429 109.006 23.0033 109.369 22.9612C109.729 22.914 110.064 22.9557 110.374 23.0863C110.68 23.2118 110.929 23.4115 111.12 23.6853C111.258 23.883 111.339 24.0906 111.362 24.308C111.385 24.5253 111.367 24.7376 111.307 24.9447C111.244 25.1468 111.153 25.346 111.033 25.5424L110.932 25.3979C111.163 25.3278 111.396 25.2936 111.631 25.2954C111.867 25.2972 112.098 25.3583 112.326 25.4787C112.554 25.5904 112.759 25.7756 112.94 26.0342C113.13 26.308 113.233 26.6171 113.247 26.9616C113.26 27.3061 113.177 27.6467 112.996 27.9834C112.821 28.3165 112.553 28.6087 112.192 28.8601Z" fill="black"/>
<path d="M138.414 13.4476C137.998 13.6404 137.562 13.7026 137.107 13.6343C136.655 13.5577 136.221 13.3363 135.806 12.9703C135.39 12.6042 135.033 12.0987 134.734 11.4538C134.435 10.8088 134.28 10.2095 134.269 9.65587C134.259 9.1022 134.371 8.63093 134.607 8.24205C134.847 7.84496 135.174 7.55001 135.59 7.35719C136.006 7.16437 136.44 7.10626 136.892 7.18286C137.347 7.25124 137.782 7.46846 138.198 7.83453C138.613 8.20059 138.971 8.70609 139.27 9.35102C139.569 9.99595 139.724 10.5953 139.734 11.1489C139.745 11.7026 139.631 12.178 139.392 12.5751C139.156 12.9639 138.83 13.2548 138.414 13.4476ZM137.981 12.5139C138.211 12.407 138.391 12.2351 138.52 11.9981C138.647 11.7555 138.696 11.4498 138.669 11.081C138.638 10.7066 138.513 10.2811 138.292 9.8044C138.071 9.32771 137.828 8.9597 137.565 8.70036C137.299 8.43542 137.033 8.27564 136.769 8.22103C136.502 8.16081 136.253 8.18411 136.023 8.29094C135.787 8.40038 135.606 8.57641 135.479 8.81902C135.356 9.05343 135.309 9.35782 135.339 9.7322C135.367 10.101 135.491 10.5237 135.712 11.0004C135.933 11.4771 136.177 11.8479 136.443 12.1128C136.707 12.3722 136.969 12.5333 137.23 12.5961C137.495 12.6507 137.745 12.6233 137.981 12.5139Z" fill="black"/>
<path d="M133.843 15.4476L133.106 13.8577L133.071 13.782L131.578 10.5602L131.771 10.4703L131.266 14.3943L131.054 14.2471L134.468 12.6642L134.886 13.5643L130.654 15.5263L130.267 14.6935L130.92 9.64901L132.066 9.11746L134.796 15.006L133.843 15.4476Z" fill="black"/>
<path d="M58.2278 109.548C58.3477 109.106 58.3354 108.667 58.1909 108.231C58.0387 107.799 57.7468 107.41 57.3151 107.063C56.8833 106.716 56.3238 106.45 55.6365 106.265C54.9492 106.08 54.3313 106.029 53.7829 106.112C53.2345 106.195 52.7883 106.386 52.4444 106.684C52.0929 106.987 51.8571 107.359 51.7372 107.801C51.6172 108.243 51.6333 108.68 51.7855 109.111C51.93 109.548 52.2182 109.939 52.6499 110.286C53.0816 110.633 53.6411 110.899 54.3284 111.084C55.0157 111.269 55.6336 111.32 56.182 111.237C56.7305 111.154 57.1804 110.961 57.532 110.658C57.8759 110.36 58.1078 109.99 58.2278 109.548ZM57.2327 109.28C57.1662 109.525 57.0269 109.731 56.8148 109.898C56.5967 110.064 56.3033 110.164 55.9345 110.199C55.5598 110.233 55.1185 110.182 54.6105 110.045C54.1025 109.908 53.6981 109.732 53.3975 109.517C53.0909 109.299 52.8882 109.066 52.7896 108.815C52.6849 108.562 52.6658 108.314 52.7323 108.069C52.8004 107.818 52.9435 107.61 53.1616 107.444C53.3721 107.283 53.6647 107.186 54.0394 107.152C54.4081 107.117 54.8465 107.167 55.3545 107.304C55.8625 107.441 56.2698 107.618 56.5764 107.835C56.8771 108.05 57.0805 108.281 57.1868 108.528C57.2854 108.779 57.3007 109.03 57.2327 109.28Z" fill="black"/>
<path d="M59.3204 104.936L54.0311 103.512L54.0812 103.824L55.1993 102.894L54.5417 102.198L52.9769 103.498L52.7629 104.286L59.0383 105.975L59.3204 104.936Z" fill="black"/>
<path d="M69.4886 84.1511L76.8443 87.5915L76.5972 88.1168L69.2416 84.6765L69.4886 84.1511Z" fill="black"/>
<path d="M88.1613 68.1529L81.5177 63.4883L81.8523 63.0137L88.4958 67.6783L88.1613 68.1529Z" fill="black"/>
<path d="M103.008 50.4829L97.278 44.7358L97.6899 44.3263L103.42 50.0734L103.008 50.4829Z" fill="black"/>
<path d="M120.702 35.6734L116.06 29.0184L116.537 28.6864L121.179 35.3414L120.702 35.6734Z" fill="black"/>
<path d="M140.661 24.1163L137.248 16.7557L137.775 16.5113L141.188 23.8719L140.661 24.1163Z" fill="black"/>
</g>
<g clip-path="url(#clip1_126_1677)">
<rect y="3.5708" width="68.2284" height="86.0008" rx="6" transform="rotate(-3 0 3.5708)" fill="#22DFF4"/>
<circle cx="36.5763" cy="47.5416" r="32.1213" transform="rotate(-5.52757 36.5763 47.5416)" fill="#22DFF4"/>
<g filter="url(#filter0_f_126_1677)">
<path d="M45.9201 62.6562C48.5394 66.952 53.5372 71.5863 50.4499 74.9416C48.7552 76.5272 46.7856 76.007 45.5158 74.6372C43.9811 72.9817 35.3499 78.5417 32.4466 81.5949C29.5434 84.6481 27.3671 82.7262 26.2585 81.554C25.1499 80.3818 20.8685 63.9791 16.5478 63.402C12.227 62.825 12.9412 57.9234 13.8753 56.6261C14.8094 55.3289 16.2244 56.2182 16.1085 55.021C16.0426 51.4022 8.88105 51.8858 5.88466 51.0384C4.38531 50.6144 1.92346 45.0283 6.26988 43.6667C12.8301 41.6117 21.4291 46.3877 27.0266 46.2014C32.6241 46.0152 30.6793 45.208 31.2995 40.5987C31.9196 35.9895 31.1303 15.5872 30.9577 12.3341C30.785 9.08103 35.3602 7.7853 36.7414 11.7744C38.1226 15.7635 38.2078 27.5054 38.9483 33.689C39.6889 39.8725 41.2881 44.9074 46.3881 46.1909C54.4789 47.9537 58.4125 46.7419 61.1034 45.9129L61.1451 45.9001C63.837 45.0709 69.9317 43.3185 70.9177 47.6302C71.9036 51.9419 65.8952 53.1173 63.5395 52.279C61.1837 51.4408 52.5149 47.8015 47.4308 50.3549C42.3467 52.9083 43.3008 58.3604 45.9201 62.6562Z" fill="#1A1A1A"/>
</g>
<path d="M17.8984 58.732L29.3984 80.753L33.8286 12.4277L47.5623 72.921L7.13731 46.6942L68.6414 48.348" stroke="#F5F5F5" stroke-width="1.4"/>
<circle cx="17.7042" cy="58.8057" r="2.36845" transform="rotate(-5.52757 17.7042 58.8057)" fill="white"/>
<circle cx="29.1129" cy="80.4958" r="2.39948" transform="rotate(-5.52757 29.1129 80.4958)" fill="white"/>
<circle cx="34.0341" cy="13.7566" r="2.37755" transform="rotate(-5.52757 34.0341 13.7566)" fill="white"/>
<circle cx="47.8252" cy="73.2214" r="2.36223" transform="rotate(-5.52757 47.8252 73.2214)" fill="white"/>
<circle cx="6.93144" cy="47.2028" r="2.2239" transform="rotate(-5.52757 6.93144 47.2028)" fill="white"/>
<circle cx="66.5101" cy="48.5361" r="2.42" transform="rotate(-5.52757 66.5101 48.5361)" fill="white"/>
</g>
<defs>
<filter id="filter0_f_126_1677" x="-0.665109" y="4.80907" width="76.1768" height="82.9137" filterUnits="userSpaceOnUse" color-interpolation-filters="sRGB">
<feFlood flood-opacity="0" result="BackgroundImageFix"/>
<feBlend mode="normal" in="SourceGraphic" in2="BackgroundImageFix" result="shape"/>
<feGaussianBlur stdDeviation="2.24283" result="effect1_foregroundBlur_126_1677"/>
</filter>
<clipPath id="clip0_126_1677">
<rect width="68.2023" height="86.0339" rx="6" transform="matrix(0.940061 0.341006 -0.343037 0.939322 79.8856 1.73242)" fill="white"/>
</clipPath>
<clipPath id="clip1_126_1677">
<rect y="3.5708" width="68.2284" height="86.0008" rx="6" transform="rotate(-3 0 3.5708)" fill="white"/>
</clipPath>
</defs>
</svg>
